<mxfile host="app.diagrams.net" modified="2023-10-18T08:17:01.889Z" agent="Mozilla/5.0 (Windows NT 10.0; Win64; x64; rv:109.0) Gecko/20100101 Firefox/118.0" etag="FaIZgwuN9oo6VRvaSghU" version="21.7.1" type="github">
  <diagram name="第 1 页" id="kIALssKvAwJNldl4Fuux">
    <mxGraphModel dx="5878" dy="562" grid="1" gridSize="10" guides="1" tooltips="1" connect="1" arrows="1" fold="1" page="1" pageScale="1" pageWidth="4681" pageHeight="3300" math="0" shadow="0">
      <root>
        <mxCell id="0" />
        <mxCell id="1" parent="0" />
        <mxCell id="wojTv2Lapz4rhkKoGWtN-5" value="" style="rounded=0;whiteSpace=wrap;html=1;" parent="1" vertex="1">
          <mxGeometry x="-400" y="750" width="1770" height="450" as="geometry" />
        </mxCell>
        <mxCell id="wojTv2Lapz4rhkKoGWtN-4" value="" style="rounded=0;whiteSpace=wrap;html=1;" parent="1" vertex="1">
          <mxGeometry x="330" y="540" width="500" height="140" as="geometry" />
        </mxCell>
        <mxCell id="wojTv2Lapz4rhkKoGWtN-1" value="预测模型" style="rounded=0;whiteSpace=wrap;html=1;" parent="1" vertex="1">
          <mxGeometry x="670" y="590" width="120" height="60" as="geometry" />
        </mxCell>
        <mxCell id="wojTv2Lapz4rhkKoGWtN-13" style="edgeStyle=orthogonalEdgeStyle;rounded=0;orthogonalLoop=1;jettySize=auto;html=1;exitX=1;exitY=0.5;exitDx=0;exitDy=0;entryX=0;entryY=0.5;entryDx=0;entryDy=0;fontFamily=Helvetica;fontSize=12;fontColor=default;" parent="1" source="wojTv2Lapz4rhkKoGWtN-2" target="wojTv2Lapz4rhkKoGWtN-1" edge="1">
          <mxGeometry relative="1" as="geometry" />
        </mxCell>
        <mxCell id="wojTv2Lapz4rhkKoGWtN-2" value="特征工程" style="rounded=0;whiteSpace=wrap;html=1;" parent="1" vertex="1">
          <mxGeometry x="520" y="590" width="120" height="60" as="geometry" />
        </mxCell>
        <mxCell id="wojTv2Lapz4rhkKoGWtN-12" style="edgeStyle=orthogonalEdgeStyle;rounded=0;orthogonalLoop=1;jettySize=auto;html=1;exitX=1;exitY=0.5;exitDx=0;exitDy=0;entryX=0;entryY=0.5;entryDx=0;entryDy=0;fontFamily=Helvetica;fontSize=12;fontColor=default;" parent="1" source="wojTv2Lapz4rhkKoGWtN-3" target="wojTv2Lapz4rhkKoGWtN-2" edge="1">
          <mxGeometry relative="1" as="geometry" />
        </mxCell>
        <mxCell id="wojTv2Lapz4rhkKoGWtN-3" value="数据处理" style="rounded=0;whiteSpace=wrap;html=1;" parent="1" vertex="1">
          <mxGeometry x="370" y="590" width="120" height="60" as="geometry" />
        </mxCell>
        <mxCell id="wojTv2Lapz4rhkKoGWtN-6" value="离线型机器学习" style="text;html=1;strokeColor=none;fillColor=none;align=center;verticalAlign=middle;whiteSpace=wrap;rounded=0;fontSize=12;fontFamily=Helvetica;fontColor=default;" parent="1" vertex="1">
          <mxGeometry x="330" y="540" width="140" height="30" as="geometry" />
        </mxCell>
        <mxCell id="wojTv2Lapz4rhkKoGWtN-7" value="预测模型" style="rounded=0;whiteSpace=wrap;html=1;" parent="1" vertex="1">
          <mxGeometry x="670" y="830" width="120" height="60" as="geometry" />
        </mxCell>
        <mxCell id="wojTv2Lapz4rhkKoGWtN-8" value="" style="endArrow=classic;html=1;rounded=0;fontFamily=Helvetica;fontSize=12;fontColor=default;entryX=0.5;entryY=0;entryDx=0;entryDy=0;exitX=0.5;exitY=1;exitDx=0;exitDy=0;" parent="1" source="wojTv2Lapz4rhkKoGWtN-1" target="wojTv2Lapz4rhkKoGWtN-7" edge="1">
          <mxGeometry width="50" height="50" relative="1" as="geometry">
            <mxPoint x="630" y="860" as="sourcePoint" />
            <mxPoint x="680" y="810" as="targetPoint" />
          </mxGeometry>
        </mxCell>
        <mxCell id="wojTv2Lapz4rhkKoGWtN-43" value="升级flash中的模型" style="edgeLabel;html=1;align=center;verticalAlign=middle;resizable=0;points=[];fontSize=12;fontFamily=Helvetica;fontColor=default;" parent="wojTv2Lapz4rhkKoGWtN-8" vertex="1" connectable="0">
          <mxGeometry x="-0.2397" y="2" relative="1" as="geometry">
            <mxPoint as="offset" />
          </mxGeometry>
        </mxCell>
        <mxCell id="wojTv2Lapz4rhkKoGWtN-11" style="edgeStyle=orthogonalEdgeStyle;rounded=0;orthogonalLoop=1;jettySize=auto;html=1;exitX=1;exitY=0.5;exitDx=0;exitDy=0;entryX=0.5;entryY=1;entryDx=0;entryDy=0;fontFamily=Helvetica;fontSize=12;fontColor=default;" parent="1" source="wojTv2Lapz4rhkKoGWtN-14" target="wojTv2Lapz4rhkKoGWtN-3" edge="1">
          <mxGeometry relative="1" as="geometry">
            <mxPoint x="430" y="830" as="sourcePoint" />
          </mxGeometry>
        </mxCell>
        <mxCell id="wojTv2Lapz4rhkKoGWtN-44" style="edgeStyle=orthogonalEdgeStyle;rounded=0;orthogonalLoop=1;jettySize=auto;html=1;exitX=1;exitY=1;exitDx=0;exitDy=0;entryX=0;entryY=0.5;entryDx=0;entryDy=0;fontFamily=Helvetica;fontSize=12;fontColor=default;" parent="1" source="wojTv2Lapz4rhkKoGWtN-14" target="wojTv2Lapz4rhkKoGWtN-7" edge="1">
          <mxGeometry relative="1" as="geometry" />
        </mxCell>
        <mxCell id="wojTv2Lapz4rhkKoGWtN-14" value="内存故障数据" style="rounded=0;whiteSpace=wrap;html=1;strokeColor=default;fontFamily=Helvetica;fontSize=12;fontColor=default;fillColor=default;" parent="1" vertex="1">
          <mxGeometry x="120" y="830" width="180" height="60" as="geometry" />
        </mxCell>
        <mxCell id="wojTv2Lapz4rhkKoGWtN-15" value="" style="rounded=0;whiteSpace=wrap;html=1;strokeColor=default;fontFamily=Helvetica;fontSize=12;fontColor=default;fillColor=default;" parent="1" vertex="1">
          <mxGeometry x="-80" y="490" width="360" height="190" as="geometry" />
        </mxCell>
        <mxCell id="wojTv2Lapz4rhkKoGWtN-17" style="edgeStyle=orthogonalEdgeStyle;rounded=0;orthogonalLoop=1;jettySize=auto;html=1;exitX=0.5;exitY=1;exitDx=0;exitDy=0;entryX=0.5;entryY=0;entryDx=0;entryDy=0;fontFamily=Helvetica;fontSize=12;fontColor=default;" parent="1" source="wojTv2Lapz4rhkKoGWtN-18" target="wojTv2Lapz4rhkKoGWtN-14" edge="1">
          <mxGeometry relative="1" as="geometry">
            <Array as="points">
              <mxPoint x="190" y="780" />
              <mxPoint x="210" y="780" />
            </Array>
          </mxGeometry>
        </mxCell>
        <mxCell id="wojTv2Lapz4rhkKoGWtN-31" value="BIOS 上报故障信息" style="edgeLabel;html=1;align=center;verticalAlign=middle;resizable=0;points=[];fontSize=12;fontFamily=Helvetica;fontColor=default;" parent="wojTv2Lapz4rhkKoGWtN-17" vertex="1" connectable="0">
          <mxGeometry x="-0.62" y="1" relative="1" as="geometry">
            <mxPoint as="offset" />
          </mxGeometry>
        </mxCell>
        <mxCell id="wojTv2Lapz4rhkKoGWtN-33" style="edgeStyle=orthogonalEdgeStyle;rounded=0;orthogonalLoop=1;jettySize=auto;html=1;exitX=0.5;exitY=1;exitDx=0;exitDy=0;fontFamily=Helvetica;fontSize=12;fontColor=default;" parent="1" source="wojTv2Lapz4rhkKoGWtN-16" target="wojTv2Lapz4rhkKoGWtN-18" edge="1">
          <mxGeometry relative="1" as="geometry" />
        </mxCell>
        <mxCell id="wojTv2Lapz4rhkKoGWtN-16" value="BIOS 解析故障位置" style="rounded=0;whiteSpace=wrap;html=1;strokeColor=default;fontFamily=Helvetica;fontSize=12;fontColor=default;fillColor=default;" parent="1" vertex="1">
          <mxGeometry x="130" y="560" width="120" height="60" as="geometry" />
        </mxCell>
        <mxCell id="wojTv2Lapz4rhkKoGWtN-18" value="eSPI 接口" style="rounded=0;whiteSpace=wrap;html=1;strokeColor=default;fontFamily=Helvetica;fontSize=12;fontColor=default;fillColor=default;" parent="1" vertex="1">
          <mxGeometry x="145" y="650" width="90" height="30" as="geometry" />
        </mxCell>
        <mxCell id="wojTv2Lapz4rhkKoGWtN-38" style="edgeStyle=orthogonalEdgeStyle;rounded=0;orthogonalLoop=1;jettySize=auto;html=1;exitX=0.5;exitY=1;exitDx=0;exitDy=0;entryX=0.5;entryY=0;entryDx=0;entryDy=0;fontFamily=Helvetica;fontSize=12;fontColor=default;" parent="1" source="wojTv2Lapz4rhkKoGWtN-19" target="wojTv2Lapz4rhkKoGWtN-37" edge="1">
          <mxGeometry relative="1" as="geometry" />
        </mxCell>
        <mxCell id="wojTv2Lapz4rhkKoGWtN-39" value="故障原始信息" style="edgeLabel;html=1;align=center;verticalAlign=middle;resizable=0;points=[];fontSize=12;fontFamily=Helvetica;fontColor=default;" parent="wojTv2Lapz4rhkKoGWtN-38" vertex="1" connectable="0">
          <mxGeometry x="-0.4306" y="-2" relative="1" as="geometry">
            <mxPoint as="offset" />
          </mxGeometry>
        </mxCell>
        <mxCell id="wojTv2Lapz4rhkKoGWtN-19" value="PECI 接口" style="rounded=0;whiteSpace=wrap;html=1;strokeColor=default;fontFamily=Helvetica;fontSize=12;fontColor=default;fillColor=default;" parent="1" vertex="1">
          <mxGeometry x="-30" y="650" width="90" height="30" as="geometry" />
        </mxCell>
        <mxCell id="wojTv2Lapz4rhkKoGWtN-21" value="" style="endArrow=classic;html=1;rounded=0;fontFamily=Helvetica;fontSize=12;fontColor=default;" parent="1" edge="1">
          <mxGeometry width="50" height="50" relative="1" as="geometry">
            <mxPoint x="-160" y="560" as="sourcePoint" />
            <mxPoint x="-80" y="560" as="targetPoint" />
          </mxGeometry>
        </mxCell>
        <mxCell id="wojTv2Lapz4rhkKoGWtN-24" value="" style="sketch=0;pointerEvents=1;shadow=0;dashed=0;html=1;strokeColor=none;fillColor=#434445;aspect=fixed;labelPosition=center;verticalLabelPosition=bottom;verticalAlign=top;align=center;outlineConnect=0;shape=mxgraph.vvd.memory;rounded=0;fontFamily=Helvetica;fontSize=12;fontColor=default;" parent="1" vertex="1">
          <mxGeometry x="-410" y="524.2" width="225.79" height="85.8" as="geometry" />
        </mxCell>
        <mxCell id="wojTv2Lapz4rhkKoGWtN-29" style="edgeStyle=orthogonalEdgeStyle;rounded=0;orthogonalLoop=1;jettySize=auto;html=1;exitX=1;exitY=0.5;exitDx=0;exitDy=0;entryX=0;entryY=0.5;entryDx=0;entryDy=0;fontFamily=Helvetica;fontSize=12;fontColor=default;" parent="1" source="wojTv2Lapz4rhkKoGWtN-28" target="wojTv2Lapz4rhkKoGWtN-16" edge="1">
          <mxGeometry relative="1" as="geometry" />
        </mxCell>
        <mxCell id="wojTv2Lapz4rhkKoGWtN-28" value="IMC 控制器" style="rounded=0;whiteSpace=wrap;html=1;strokeColor=default;fontFamily=Helvetica;fontSize=12;fontColor=default;fillColor=default;" parent="1" vertex="1">
          <mxGeometry x="-80" y="540" width="70" height="40" as="geometry" />
        </mxCell>
        <mxCell id="wojTv2Lapz4rhkKoGWtN-30" value="SMI 中断" style="text;html=1;strokeColor=none;fillColor=none;align=center;verticalAlign=middle;whiteSpace=wrap;rounded=0;fontSize=12;fontFamily=Helvetica;fontColor=default;" parent="1" vertex="1">
          <mxGeometry y="560" width="60" height="30" as="geometry" />
        </mxCell>
        <mxCell id="wojTv2Lapz4rhkKoGWtN-35" style="edgeStyle=orthogonalEdgeStyle;rounded=0;orthogonalLoop=1;jettySize=auto;html=1;exitX=1;exitY=0.5;exitDx=0;exitDy=0;entryX=0;entryY=0.75;entryDx=0;entryDy=0;fontFamily=Helvetica;fontSize=12;fontColor=default;" parent="1" source="wojTv2Lapz4rhkKoGWtN-34" target="wojTv2Lapz4rhkKoGWtN-16" edge="1">
          <mxGeometry relative="1" as="geometry" />
        </mxCell>
        <mxCell id="wojTv2Lapz4rhkKoGWtN-36" style="edgeStyle=orthogonalEdgeStyle;rounded=0;orthogonalLoop=1;jettySize=auto;html=1;exitX=0.5;exitY=1;exitDx=0;exitDy=0;entryX=0;entryY=0;entryDx=0;entryDy=0;fontFamily=Helvetica;fontSize=12;fontColor=default;" parent="1" source="wojTv2Lapz4rhkKoGWtN-34" target="wojTv2Lapz4rhkKoGWtN-19" edge="1">
          <mxGeometry relative="1" as="geometry" />
        </mxCell>
        <mxCell id="wojTv2Lapz4rhkKoGWtN-34" value="MSR / CSR 寄存器" style="rounded=0;whiteSpace=wrap;html=1;strokeColor=default;fontFamily=Helvetica;fontSize=12;fontColor=default;fillColor=default;" parent="1" vertex="1">
          <mxGeometry x="-80" y="600" width="110" height="30" as="geometry" />
        </mxCell>
        <mxCell id="wojTv2Lapz4rhkKoGWtN-40" style="edgeStyle=orthogonalEdgeStyle;rounded=0;orthogonalLoop=1;jettySize=auto;html=1;exitX=1;exitY=0.5;exitDx=0;exitDy=0;entryX=0;entryY=0.5;entryDx=0;entryDy=0;fontFamily=Helvetica;fontSize=12;fontColor=default;" parent="1" source="wojTv2Lapz4rhkKoGWtN-37" target="wojTv2Lapz4rhkKoGWtN-14" edge="1">
          <mxGeometry relative="1" as="geometry" />
        </mxCell>
        <mxCell id="wojTv2Lapz4rhkKoGWtN-37" value="BMC 解析故障位置" style="rounded=0;whiteSpace=wrap;html=1;strokeColor=default;fontFamily=Helvetica;fontSize=12;fontColor=default;fillColor=default;" parent="1" vertex="1">
          <mxGeometry x="-40" y="830" width="120" height="60" as="geometry" />
        </mxCell>
        <mxCell id="wojTv2Lapz4rhkKoGWtN-48" value="" style="rounded=0;whiteSpace=wrap;html=1;strokeColor=default;fontFamily=Helvetica;fontSize=12;fontColor=default;fillColor=default;dashed=1;" parent="1" vertex="1">
          <mxGeometry x="170" y="960" width="680" height="220" as="geometry" />
        </mxCell>
        <mxCell id="wojTv2Lapz4rhkKoGWtN-51" value="在线型机器学习" style="text;html=1;strokeColor=none;fillColor=none;align=center;verticalAlign=middle;whiteSpace=wrap;rounded=0;fontSize=12;fontFamily=Helvetica;fontColor=default;" parent="1" vertex="1">
          <mxGeometry x="170" y="960" width="140" height="30" as="geometry" />
        </mxCell>
        <mxCell id="wojTv2Lapz4rhkKoGWtN-52" value="故障时间相似性置信度计算" style="rounded=0;whiteSpace=wrap;html=1;strokeColor=default;fontFamily=Helvetica;fontSize=12;fontColor=default;fillColor=default;" parent="1" vertex="1">
          <mxGeometry x="200" y="1000" width="180" height="40" as="geometry" />
        </mxCell>
      </root>
    </mxGraphModel>
  </diagram>
</mxfile>
